<?xml version="1.0" encoding="UTF-8" standalone="no"?>
<svg
   xmlns:dc="http://purl.org/dc/elements/1.1/"
   xmlns:cc="http://creativecommons.org/ns#"
   xmlns:rdf="http://www.w3.org/1999/02/22-rdf-syntax-ns#"
   xmlns:svg="http://www.w3.org/2000/svg"
   xmlns="http://www.w3.org/2000/svg"
   viewBox="0 0 755.90668 377.94666"
   height="4em"
   width="8em"
   xml:space="preserve"
   id="svg2"
   version="1.1"><metadata
     id="metadata8"><rdf:RDF><cc:Work
         rdf:about=""><dc:format>image/svg+xml</dc:format><dc:type
           rdf:resource="http://purl.org/dc/dcmitype/StillImage" /></cc:Work></rdf:RDF></metadata><defs
     id="defs6"><clipPath
       id="clipPath30"
       clipPathUnits="userSpaceOnUse"><path
         id="path28"
         d="M 0,283.46 H 566.93 V 0 H 0 Z" /></clipPath></defs><g
     transform="matrix(1.3333333,0,0,-1.3333333,0,377.94667)"
     id="g10"><g
       transform="translate(39.5146,213.9478)"
       id="g12"><path
         id="path14"
         style="fill:#bb0022;fill-opacity:1;fill-rule:nonzero;stroke:none"
         d="m 0,0 h 33.204 v -121.708 h 45.73 v -33.441 H 0 Z" /></g><g
       transform="translate(208.9028,163.1373)"
       id="g16"><path
         id="path18"
         style="fill:#bb0022;fill-opacity:1;fill-rule:nonzero;stroke:none"
         d="M 0,0 -18.24,-45.729 H 18.629 Z M -12.955,50.811 H 12.949 L 76.157,-104.338 H 42.504 l -12.418,30.486 h -59.542 l -12.164,-30.486 h -33.473 z" /></g><g
       transform="translate(288.1738,213.6939)"
       id="g20"><path
         id="path22"
         style="fill:#bb0022;fill-opacity:1;fill-rule:nonzero;stroke:none"
         d="M 0,0 H 50.456 V -154.895 H 16.413 V -28.207 H -5.958 Z" /></g><g
       id="g24"><g
         clip-path="url(#clipPath30)"
         id="g26"><g
           transform="translate(362,212.46)"
           id="g32"><path
             id="path34"
             style="fill:#bb0022;fill-opacity:1;fill-rule:nonzero;stroke:none"
             d="M 0,0 V -154 H 42.821 C 32.397,-152 25,-146.638 25,-132.732 V -78 H 9 v 18 h 16 v 28 H 50 V -60 H 69 V -78 H 50 v -45.863 c 0,-8.688 2.261,-10.861 10.948,-10.861 2.715,0 6.052,0.182 8.052,0.725 v -20.091 c 0,-0.005 0.2,0.09 0.168,0.09 h 41.198 l -32.037,93 h 26.969 l 19.728,-63 h 0.363 l 19.729,63 h 25.521 l -31.675,-93 H 178 V 0 Z" /></g></g></g></g></svg>